<svg width="32" height="42" viewBox="0 0 32 42" fill="none" xmlns="http://www.w3.org/2000/svg">
<path d="M11.5533 23.2391L16 19.8658L20.4275 23.2391L18.7408 17.7766L23.1875 14.2499H17.7442L16 8.86409L14.2558 14.2499H8.81249L13.24 17.7766L11.5533 23.2391ZM31.3333 16.1666C31.3333 7.69492 24.4717 0.833252 16 0.833252C7.52832 0.833252 0.666656 7.69492 0.666656 16.1666C0.666656 20.0574 2.12332 23.5841 4.49999 26.2866V41.0832L16 37.2499L27.5 41.0832V26.2866C29.8767 23.5841 31.3333 20.0574 31.3333 16.1666ZM16 4.66658C22.3442 4.66658 27.5 9.82242 27.5 16.1666C27.5 22.5107 22.3442 27.6666 16 27.6666C9.65582 27.6666 4.49999 22.5107 4.49999 16.1666C4.49999 9.82242 9.65582 4.66658 16 4.66658Z" fill="#003896"/>
</svg>
