<svg width="44" height="32" viewBox="0 0 44 32" fill="none" xmlns="http://www.w3.org/2000/svg">
<path d="M35.4166 19.8334V4.50008C35.4166 2.39175 33.6916 0.666748 31.5833 0.666748H4.74996C2.64163 0.666748 0.916626 2.39175 0.916626 4.50008V19.8334C0.916626 21.9417 2.64163 23.6667 4.74996 23.6667H31.5833C33.6916 23.6667 35.4166 21.9417 35.4166 19.8334ZM31.5833 19.8334H4.74996V4.50008H31.5833V19.8334ZM18.1666 6.41675C14.985 6.41675 12.4166 8.98508 12.4166 12.1667C12.4166 15.3484 14.985 17.9167 18.1666 17.9167C21.3483 17.9167 23.9166 15.3484 23.9166 12.1667C23.9166 8.98508 21.3483 6.41675 18.1666 6.41675ZM43.0833 6.41675V27.5001C43.0833 29.6084 41.3583 31.3334 39.25 31.3334H6.66663C6.66663 29.4167 6.66663 29.6084 6.66663 27.5001H39.25V6.41675C41.3583 6.41675 41.1666 6.41675 43.0833 6.41675Z" fill="#003896"/>
</svg>
