<svg width="44" height="32" viewBox="0 0 44 32" fill="none" xmlns="http://www.w3.org/2000/svg">
<path d="M37.3333 8.33342H31.5833V0.666748H4.75C2.64167 0.666748 0.916672 2.39175 0.916672 4.50008V25.5834H4.75C4.75 28.7651 7.31834 31.3334 10.5 31.3334C13.6817 31.3334 16.25 28.7651 16.25 25.5834H27.75C27.75 28.7651 30.3183 31.3334 33.5 31.3334C36.6817 31.3334 39.25 28.7651 39.25 25.5834H43.0833V16.0001L37.3333 8.33342ZM10.5 28.4584C8.90917 28.4584 7.625 27.1742 7.625 25.5834C7.625 23.9926 8.90917 22.7084 10.5 22.7084C12.0908 22.7084 13.375 23.9926 13.375 25.5834C13.375 27.1742 12.0908 28.4584 10.5 28.4584ZM36.375 11.2084L40.1317 16.0001H31.5833V11.2084H36.375ZM33.5 28.4584C31.9092 28.4584 30.625 27.1742 30.625 25.5834C30.625 23.9926 31.9092 22.7084 33.5 22.7084C35.0908 22.7084 36.375 23.9926 36.375 25.5834C36.375 27.1742 35.0908 28.4584 33.5 28.4584Z" fill="#003896"/>
</svg>
