<svg width="180" height="25" viewBox="0 0 180 25" fill="none" xmlns="http://www.w3.org/2000/svg">
<path fill-rule="evenodd" clip-rule="evenodd" d="M170.659 0C176.347 0 178.492 3.84282 178.492 7.15736C178.492 12.8024 173.404 13.8145 173.404 13.8145L180 24.3332H166.732L163.881 17.3441V24.3332H139.758L136.906 17.3441V24.3332H125.544V0H143.685C149.365 0 151.522 3.84282 151.522 7.15736C151.522 12.8024 146.427 13.8145 146.427 13.8145L152.516 23.5244V0H170.659ZM61.9432 4.63289V9.2424H63.5795C63.9596 9.24183 64.3318 9.13348 64.6529 8.92992C64.9739 8.72637 65.2307 8.43594 65.3933 8.09236C65.5593 7.72075 65.6433 7.31777 65.6397 6.91081C65.6361 6.50384 65.5449 6.10242 65.3723 5.73384C65.2146 5.39455 64.9605 5.10921 64.6416 4.91342C64.3228 4.71763 63.9534 4.62006 63.5795 4.63289H61.9432ZM50.3727 0C50.3727 0 66.9104 0 69.7411 0C75.136 0 76.4122 4.04852 76.4169 6.42807C76.4333 10.7033 73.4413 11.7529 73.4413 11.7529C73.4413 11.7529 76.6693 12.9707 76.6693 17.5311C76.6693 24.63 70.1641 24.3378 69.1544 24.3378H50.3727V0ZM124.415 24.3378V18.7466H119.153V14.3054H124.354V9.47147H119.153V4.79651H124.415V0H107.117V24.3332L124.415 24.3378ZM93.56 24.3378H105.584V0H93.56V9.22136H89.6611V0H77.3706V24.3332H89.6681V14.109H93.5693V24.3355L93.56 24.3378ZM49.2951 24.3378V18.7466H44.0288V14.3054H49.2414V9.47147H44.0288V4.79651H49.2951V0H31.9978V24.3332L49.2951 24.3378ZM18.6367 0H30.4574V24.3332H18.6367V0ZM17.468 24.3332V17.6199H12.197V0H0V24.3332H17.468ZM136.696 4.63289V10.3971H138.145C139.704 10.3971 140.249 9.65847 140.604 8.88009C140.971 7.95767 140.971 6.92974 140.604 6.00732C140.356 5.38789 139.707 4.63055 138.145 4.63055L136.696 4.63289ZM163.67 4.63289V10.3971H165.113C166.672 10.3971 167.216 9.65847 167.572 8.88009C167.938 7.95763 167.938 6.92978 167.572 6.00732C167.324 5.38789 166.674 4.63055 165.113 4.63055L163.67 4.63289ZM61.9432 14.4643V19.4455H63.5795C64.0081 19.4398 64.4279 19.322 64.7969 19.1039C65.166 18.8857 65.4715 18.5748 65.6832 18.202C65.8547 17.7993 65.94 17.3652 65.9335 16.9276C65.9271 16.49 65.8291 16.0586 65.6458 15.6611C65.0427 14.3732 63.715 14.4924 63.5865 14.4713L61.9432 14.4643Z" fill="black"/>
</svg>
