<svg width="180" height="30" viewBox="0 0 180 30" fill="none" xmlns="http://www.w3.org/2000/svg">
<path fill-rule="evenodd" clip-rule="evenodd" d="M136.8 0.493896H144.099V11.5354H158.872V0.493896H166.171V28.0646H158.872V15.9037H144.099V28.0646H136.8V0.493896Z" fill="#EF3D42"/>
<path fill-rule="evenodd" clip-rule="evenodd" d="M0 0.493896H7.29878V11.5354H22.072V0.493896H29.4146V28.0646H22.072V15.9037H7.29878V28.0646H0V0.493896Z" fill="#EF3D42"/>
<path fill-rule="evenodd" clip-rule="evenodd" d="M35.4512 0.493896H42.8378V28.0646H35.4512V0.493896Z" fill="#EF3D42"/>
<path fill-rule="evenodd" clip-rule="evenodd" d="M172.076 0.493896H179.462V28.0646H172.076V0.493896Z" fill="#EF3D42"/>
<path fill-rule="evenodd" clip-rule="evenodd" d="M45.5378 0.493896H74.239V5.09268H63.5158V28.0646H56.2609V5.09268H45.5378V0.493896Z" fill="#EF3D42"/>
<path fill-rule="evenodd" clip-rule="evenodd" d="M80.5391 17.561L85.6098 5.22443L90.6805 17.561H80.5391ZM92.5244 21.9513L95.0488 28.1195H103.292L90.2744 0.537842H81.033L67.9281 28.0647H76.1269L78.6952 21.9513H92.5244Z" fill="#EF3D42"/>
<path fill-rule="evenodd" clip-rule="evenodd" d="M125.495 9.87805H132.98C132.882 4.87317 128.59 0.0987805 118.515 0C111.04 0 101.985 3.01829 101.941 14.2683C101.898 25.5183 111.128 28.8659 118.515 28.6793C125.319 28.4598 132.882 26.561 133.2 18.1866H125.682C125.451 23.411 121.291 24.4537 118.515 24.4976C115.738 24.5415 109.866 23.9049 109.734 14.3561C109.646 5.34512 114.959 4.0939 118.515 4.0939C122.071 4.0939 125.451 5.76219 125.495 9.87805Z" fill="#EF3D42"/>
</svg>
