<svg width="80" height="30" viewBox="0 0 80 30" fill="none" xmlns="http://www.w3.org/2000/svg">
<path fill-rule="evenodd" clip-rule="evenodd" d="M14.889 27.7502C12.3864 27.7509 9.93979 27.0038 7.85858 25.6033C5.77736 24.2027 4.15505 22.2117 3.19682 19.8819C2.23859 17.5522 1.98748 14.9885 2.47525 12.5149C2.96303 10.0414 4.16777 7.76914 5.93712 5.98561C7.70647 4.20208 9.96095 2.98736 12.4154 2.49508C14.8699 2.0028 17.4141 2.25507 19.7263 3.21999C22.0385 4.18491 24.0148 5.81913 25.4052 7.91597C26.7957 10.0128 27.5379 12.4781 27.5379 15C27.5308 18.3787 26.196 21.6171 23.8256 24.0065C21.4551 26.396 18.2419 27.7421 14.889 27.7502ZM14.889 4.91559e-07C11.9449 -0.000758885 9.06658 0.87833 6.61822 2.52609C4.16985 4.17385 2.26138 6.51626 1.13417 9.25709C0.00695896 11.9979 -0.288362 15.014 0.285558 17.924C0.859477 20.834 2.27686 23.5071 4.35844 25.6052C6.44003 27.7034 9.09231 29.1324 11.9799 29.7115C14.8674 30.2906 17.8605 29.9938 20.5807 28.8586C23.3008 27.7234 25.6258 25.8008 27.2616 23.3339C28.8974 20.8671 29.7705 17.9669 29.7705 15C29.7634 11.0246 28.1934 7.21399 25.4042 4.4026C22.6151 1.5912 18.834 0.00811966 14.889 4.91559e-07Z" fill="white"/>
<path fill-rule="evenodd" clip-rule="evenodd" d="M15.9482 4.5764V6.68799C17.5033 6.8856 18.9715 7.52101 20.1845 8.5213C21.3975 9.52159 22.3061 10.8462 22.806 12.3432L20.4362 14.9962L22.7907 17.6606C22.2901 19.1578 21.3815 20.4829 20.1687 21.4843C18.956 22.4857 17.4882 23.1231 15.933 23.3235V25.4274C18.1375 25.2006 20.2128 24.2712 21.8572 22.7743C23.5016 21.2774 24.6294 19.291 25.0767 17.1039L23.2175 15.0077L25.0767 12.9191C24.6308 10.7306 23.5036 8.74252 21.8591 7.24413C20.2146 5.74574 18.1385 4.81521 15.933 4.58792" fill="white"/>
<path fill-rule="evenodd" clip-rule="evenodd" d="M11.8145 18.6012L8.68274 16.0865V6.63041C7.89752 7.22749 7.19979 7.93318 6.61016 8.72664V17.0962L11.8145 21.2849V24.9898C12.4902 25.2044 13.1859 25.3485 13.8909 25.4198V4.5764C13.1865 4.64262 12.4907 4.78156 11.8145 4.99104V18.6012Z" fill="white"/>
<path fill-rule="evenodd" clip-rule="evenodd" d="M54.1423 14.8925L55.1176 11.8211C55.1481 11.7213 55.2281 11.5331 55.2815 11.5331C55.3348 11.5331 55.4148 11.7251 55.4453 11.8211C55.7729 12.7924 56.0968 13.829 56.4206 14.8925H54.1423ZM74.0413 15.9214C73.8614 15.5988 73.5936 15.3348 73.2695 15.1606C72.9455 14.9865 72.5787 14.9094 72.2126 14.9386V14.8618C72.644 14.7829 73.0421 14.5757 73.3556 14.2667C74.0109 13.6063 74.068 12.8039 74.068 11.9631C74.068 11.0187 74.0147 9.93601 73.3365 9.18735C72.4602 8.2237 71.1039 8.2429 69.9076 8.2429H61.343L62.6764 11.5946H68.4675C68.8511 11.5566 69.2384 11.5891 69.6104 11.6906C69.9267 11.8364 69.9571 12.1129 69.9571 12.4239C69.9701 12.5612 69.9558 12.6998 69.9153 12.8316C69.8748 12.9634 69.8087 13.0858 69.7209 13.1917C69.4466 13.4605 68.8789 13.4413 68.4027 13.4413H63.4422L64.5852 16.3706H68.5284C69.2904 16.3706 69.6257 16.3706 69.8467 16.5434C69.9673 16.6382 70.0624 16.7621 70.123 16.9037C70.1835 17.0453 70.2078 17.2 70.1934 17.3535C70.2131 17.5192 70.1881 17.6873 70.1211 17.84C70.054 17.9927 69.9474 18.1244 69.8124 18.2211C69.6143 18.344 69.3171 18.3747 68.5132 18.3747H61.6554L58.2265 9.72485C57.6207 8.2237 56.5235 8.08932 55.3005 8.08932C53.3232 8.08932 52.7746 8.72664 52.3745 9.72485L47.6274 21.7494H51.9859L53.2317 17.8257H57.3045C57.7198 19.1886 58.1465 20.5132 58.5884 21.7494H69.8276C70.7801 21.7494 72.3688 21.8646 73.3213 21.1505C74.2737 20.4364 74.4185 19.0696 74.4185 18.106C74.4806 17.3569 74.3494 16.6043 74.0375 15.9214H74.0413Z" fill="white"/>
<path fill-rule="evenodd" clip-rule="evenodd" d="M43.3146 8.26593V14.8887H40.0648C39.478 14.8887 39.0437 14.8656 38.8113 14.6583C38.5103 14.3857 38.5256 13.8098 38.5256 13.4451V8.26593H34.2356V14.1362C34.2068 14.9359 34.384 15.7295 34.75 16.4397C35.0134 16.8794 35.3876 17.241 35.8346 17.4878C36.2816 17.7346 36.7855 17.8578 37.295 17.8449H43.3184V21.7494L47.6274 21.7494V8.26593H43.3146Z" fill="white"/>
<path fill-rule="evenodd" clip-rule="evenodd" d="M76.152 8.75736H75.5386V8.3312H77.2874V8.75736H76.6664V10.5772H76.152V8.75736Z" fill="white"/>
<path fill-rule="evenodd" clip-rule="evenodd" d="M79.4666 9.71717C79.4666 9.44842 79.4476 9.12209 79.4476 8.79191C79.3714 9.07985 79.2799 9.39851 79.1923 9.66342L78.9142 10.5426H78.5142L78.2703 9.6711C78.1979 9.40619 78.1217 9.09137 78.0646 8.79191C78.0646 9.09521 78.0417 9.44458 78.0265 9.72485L77.9808 10.581H77.5045L77.6493 8.3312H78.3351L78.5561 9.09905C78.6284 9.36012 78.697 9.64039 78.7465 9.90146C78.8075 9.64039 78.8837 9.34476 78.9637 9.09521L79.2037 8.34656H79.8781L80 10.5964H79.5009L79.4666 9.71717Z" fill="white"/>
</svg>
