<svg width="22" height="18" viewBox="0 0 22 18" fill="none" xmlns="http://www.w3.org/2000/svg">
<path fill-rule="evenodd" clip-rule="evenodd" d="M1.03731 5.04927C0.733824 7.86907 0.747352 11.1212 1.16966 13.9296C1.40333 15.4835 2.67156 16.6748 4.23705 16.8109L5.87314 16.9531C9.2846 17.2496 12.7154 17.2496 16.1268 16.9531L17.7629 16.8109C19.3284 16.6748 20.5966 15.4835 20.8303 13.9296C21.2526 11.1212 21.2662 7.86926 20.9627 5.04944C20.9234 4.72253 20.8793 4.39607 20.8303 4.07014C20.5966 2.51622 19.3284 1.32494 17.7629 1.18885L16.1268 1.04663C12.7154 0.750081 9.2846 0.750081 5.87314 1.04663L4.23705 1.18885C2.67156 1.32494 1.40333 2.51622 1.16966 4.07014C1.12066 4.39601 1.07654 4.72242 1.03731 5.04927ZM6.01386 2.66553C9.33169 2.37712 12.6683 2.37712 15.9861 2.66553L17.6222 2.80775C18.4394 2.87879 19.1014 3.50064 19.2234 4.31179C19.236 4.39603 19.2484 4.4803 19.2603 4.56461L13.2359 7.91151C11.8454 8.68405 10.1545 8.68405 8.76396 7.91151L2.73962 4.56465C2.7516 4.48033 2.76392 4.39604 2.77659 4.31179C2.89857 3.50064 3.56059 2.87879 4.37778 2.80775L6.01386 2.66553ZM19.4592 6.31308C19.6693 8.76981 19.5907 11.2451 19.2234 13.6879C19.1014 14.4991 18.4394 15.1209 17.6222 15.192L15.9861 15.3342C12.6683 15.6226 9.33169 15.6226 6.01386 15.3342L4.37778 15.192C3.56059 15.1209 2.89857 14.4991 2.77659 13.6879C2.40925 11.2451 2.33064 8.76983 2.54077 6.31312L7.97479 9.33202C9.85614 10.3772 12.1437 10.3772 14.0251 9.33202L19.4592 6.31308Z" fill="#003896"/>
</svg>
