<svg width="20" height="20" viewBox="0 0 20 20" fill="none" xmlns="http://www.w3.org/2000/svg">
<path fill-rule="evenodd" clip-rule="evenodd" d="M2.694 7.61827C4.63026 11.8345 8.07578 15.1865 12.359 17.0028L12.3725 17.0085L13.2 17.3774C14.2537 17.8468 15.4922 17.5134 16.1678 16.5784L17.5483 14.6677C17.6327 14.551 17.6109 14.3887 17.4989 14.2983L15.0887 12.3539C14.9689 12.2572 14.7927 12.2798 14.7011 12.4034L13.7631 13.6692C13.5353 13.9766 13.1239 14.0834 12.7753 13.9257C9.57251 12.4762 6.99882 9.90254 5.5494 6.69977C5.39165 6.3512 5.49846 5.9398 5.80586 5.71199L7.0716 4.77398C7.19528 4.68232 7.2178 4.50614 7.12114 4.38633L5.17651 1.97587C5.08613 1.86383 4.9239 1.84207 4.80719 1.92633L2.88613 3.31317C1.94494 3.99262 1.61348 5.24154 2.0939 6.29827L2.69335 7.61687C2.69357 7.61733 2.69378 7.6178 2.694 7.61827ZM11.7178 18.496C7.06377 16.5204 3.32046 12.8771 1.21658 8.29491L1.21531 8.29215L0.614597 6.9708C-0.186094 5.20957 0.366328 3.12804 1.93498 1.99562L3.85604 0.608778C4.67301 0.0190043 5.80859 0.171326 6.44125 0.955544L8.38588 3.36601C9.06248 4.20469 8.90489 5.43795 8.03913 6.07955L7.31384 6.61705C8.539 8.99431 10.4807 10.9361 12.858 12.1612L13.3955 11.4359C14.0371 10.5702 15.2704 10.4126 16.1091 11.0892L18.5192 13.0335C19.3036 13.6664 19.4558 14.8024 18.8655 15.6194L17.4849 17.5301C16.359 19.0884 14.2948 19.6441 12.5387 18.8617L11.7178 18.496Z" fill="#003896"/>
</svg>
