<svg width="580" height="400" xmlns="http://www.w3.org/2000/svg">
 <!-- Created with SVG Editor - http://github.com/mzalive/SVG Editor/ -->

 <g>
  <title>background</title>
  <rect fill="#fff" id="canvas_background" height="402" width="582" y="-1" x="-1"/>
  <g display="none" overflow="visible" y="0" x="0" height="100%" width="100%" id="canvasGrid">
   <rect fill="url(#gridpattern)" stroke-width="0" y="0" x="0" height="100%" width="100%"/>
  </g>
 </g>
 <g>
  <title>Layer 1</title>
  <g id="svg_5">
   <path id="svg_4" fill="white" d="m571.320164,213.080869c7.223957,-7.224512 7.223957,-18.937497 0,-26.162009l-117.729228,-117.728488c-7.223957,-7.224327 -18.935832,-7.224327 -26.161639,0c-7.223957,7.224512 -7.223957,18.937497 0,26.162009l104.648408,104.647483l-104.648408,104.648408c-7.223957,7.223957 -7.223957,18.935832 0,26.161639c7.225807,7.223957 18.937682,7.223957 26.161639,0l117.729228,-117.729043zm-568.058323,5.418245l554.977503,0l0,-36.9985l-554.977503,0l0,36.9985z"/>
  </g>
  <g transform="rotate(-180 290,199.99999999999997) " id="svg_11">
   <path id="svg_10" fill="white" d="m571.320164,213.080869c7.223957,-7.224512 7.223957,-18.937497 0,-26.162009l-117.729228,-117.728488c-7.223957,-7.224327 -18.935832,-7.224327 -26.161639,0c-7.223957,7.224512 -7.223957,18.937497 0,26.162009l104.648408,104.647483l-104.648408,104.648408c-7.223957,7.223957 -7.223957,18.935832 0,26.161639c7.225807,7.223957 18.937682,7.223957 26.161639,0l117.729228,-117.729043zm-568.058323,5.418245l554.977503,0l0,-36.9985l-554.977503,0l0,36.9985z"/>
  </g>
 </g>
</svg>