<svg width="20" height="23" viewBox="0 0 20 23" fill="none" xmlns="http://www.w3.org/2000/svg">
<path fill-rule="evenodd" clip-rule="evenodd" d="M4.85417 9.83317C4.85417 6.99121 7.15804 4.68734 10 4.68734C12.842 4.68734 15.1458 6.99121 15.1458 9.83317C15.1458 12.6751 12.842 14.979 10 14.979C7.15804 14.979 4.85417 12.6751 4.85417 9.83317ZM10 6.31234C8.0555 6.31234 6.47917 7.88867 6.47917 9.83317C6.47917 11.7777 8.0555 13.354 10 13.354C11.9445 13.354 13.5208 11.7777 13.5208 9.83317C13.5208 7.88867 11.9445 6.31234 10 6.31234Z" fill="#003896"/>
<path fill-rule="evenodd" clip-rule="evenodd" d="M0.818062 8.59476C1.20192 3.93793 5.09341 0.354004 9.76604 0.354004H10.234C14.9066 0.354004 18.7981 3.93793 19.1819 8.59476C19.3881 11.0963 18.6154 13.5803 17.0265 15.5235L11.8341 21.8737C10.8861 23.033 9.11386 23.033 8.16594 21.8737L2.97346 15.5235C1.38458 13.5803 0.611861 11.0963 0.818062 8.59476ZM9.76604 1.979C5.93912 1.979 2.75195 4.91427 2.43757 8.72825C2.26595 10.8102 2.90907 12.8776 4.23145 14.4948L9.42393 20.8451C9.72167 21.2092 10.2783 21.2092 10.5761 20.8451L15.7686 14.4948C17.0909 12.8776 17.734 10.8102 17.5624 8.72825C17.2481 4.91427 14.0609 1.979 10.234 1.979H9.76604Z" fill="#003896"/>
</svg>
