<svg width="180" height="26" viewBox="0 0 180 26" fill="none" xmlns="http://www.w3.org/2000/svg">
<path fill-rule="evenodd" clip-rule="evenodd" d="M0 1.06201V4.36201H5.4L15.948 24.162H28.923L39.471 4.34401L44.871 4.30801V1.08901H28.746V4.29301H33.042L25.593 18.357L17.535 4.34401L23.4 4.31701V1.06201H0Z" fill="#0D3896"/>
<path fill-rule="evenodd" clip-rule="evenodd" d="M104.04 1.06201V4.36201H109.44L119.988 24.162H132.972L143.523 4.34401L148.923 4.30801V1.08901H132.789V4.29301H137.082L129.633 18.357L121.575 4.34401L127.452 4.31701V1.06201H104.04Z" fill="#0D3896"/>
<path fill-rule="evenodd" clip-rule="evenodd" d="M77.517 1.06201V4.36201H82.917V20.514H77.232V24.114L82.932 24.147H109.845V13.395H106.326C106.134 19.095 101.202 20.508 99.126 20.508H93.534V4.34401L98.844 4.31701V1.06201H77.517Z" fill="#0D3896"/>
<path fill-rule="evenodd" clip-rule="evenodd" d="M59.133 21.1799C55.902 21.1799 53.286 17.3099 53.286 12.5339C53.286 7.75792 55.902 3.89993 59.133 3.89993C62.364 3.89993 64.977 7.76992 64.977 12.5459C64.977 17.3219 62.361 21.1799 59.133 21.1799ZM59.37 0.398926C50.208 0.398926 42.78 5.85592 42.78 12.5819C42.78 19.3079 50.208 24.7649 59.37 24.7649C68.532 24.7649 75.96 19.3109 75.96 12.5819C75.96 5.85292 68.532 0.398926 59.37 0.398926Z" fill="#0D3896"/>
<path fill-rule="evenodd" clip-rule="evenodd" d="M163.173 21.117C159.945 21.117 157.329 17.184 157.329 12.33C157.329 7.476 159.945 3.546 163.173 3.546C166.401 3.546 169.02 7.479 169.02 12.33C169.02 17.181 166.404 21.117 163.173 21.117ZM163.413 0C154.248 0 146.823 5.544 146.823 12.381C146.823 19.218 154.248 24.762 163.413 24.762C172.578 24.762 180 19.218 180 12.381C180 5.544 172.572 0 163.413 0Z" fill="#0D3896"/>
</svg>
